<svg xmlns="http://www.w3.org/2000/svg" width="512" height="512" viewBox="0 0 512 512" id="crown-heart">
	<g>
		<path fill="#C98B0E" d="M407.27 432.27v4.54c0 8.23-6.67 14.91-14.91 14.91H119.64c-8.24 0-14.91-6.68-14.91-14.91v-4.54c0-8.23 6.67-14.9 14.91-14.9h272.72c8.24 0 14.91 6.67 14.91 14.9z"></path>
		<path d="M407.27 432.27v4.54c0 1.71-.29 3.36-.83 4.89-2.02-5.82-7.56-10-14.08-10H119.64c-6.52 0-12.06 4.18-14.08 10-.54-1.53-.83-3.18-.83-4.89v-4.54c0-8.23 6.67-14.9 14.91-14.9h272.72c8.24 0 14.91 6.67 14.91 14.9z" opacity=".2"></path>
		<path fill="#2FC1F1" d="M90.72 216.9c-4.26 7.61-11.52 13.32-20.18 15.52-2.55.65-5.23 1-7.99 1-17.82 0-32.26-14.44-32.26-32.26s14.44-32.26 32.26-32.26 32.26 14.44 32.26 32.26c0 5.72-1.49 11.09-4.09 15.74z"></path>
		<path fill="#DD6475" d="M256 60.28c24.34 0 44.07 19.73 44.07 44.07 0 21.59-15.54 39.57-36.06 43.33-2.6.48-5.27.73-8.01.73s-5.41-.25-8.01-.73c-20.52-3.76-36.06-21.74-36.06-43.33 0-24.34 19.73-44.07 44.07-44.07z"></path>
		<path fill="#FFF" d="M226.071 108.849a4.5 4.5 0 0 1-4.5-4.5c0-18.984 15.445-34.429 34.429-34.429a4.5 4.5 0 0 1 0 9c-14.021 0-25.429 11.408-25.429 25.429a4.5 4.5 0 0 1-4.5 4.5z"></path>
		<path fill="#77D379" d="M421.28 216.9a32.162 32.162 0 0 1-4.09-15.74c0-17.82 14.44-32.26 32.26-32.26s32.27 14.44 32.27 32.26-14.45 32.26-32.27 32.26c-2.76 0-5.44-.35-7.99-1-8.66-2.2-15.92-7.91-20.18-15.52z"></path>
		<path fill="#FFC035" d="M441.46 232.42v.01L394.2 417.37H117.8L70.54 232.43v-.01c8.66-2.2 15.92-7.91 20.18-15.52 13.72 5.43 28.68 8.39 44.33 8.39 51.53 0 95.52-32.22 112.94-77.59v-.02c2.6.48 5.27.73 8.01.73s5.41-.25 8.01-.73v.02c17.42 45.38 61.41 77.59 112.94 77.59 15.65 0 30.61-2.96 44.33-8.39 4.26 7.61 11.52 13.32 20.18 15.52z"></path>
		<path fill="#FFF" d="M426.85 205.663a4.5 4.5 0 01-4.5-4.5c0-14.946 12.159-27.106 27.105-27.106a4.5 4.5 0 010 9c-9.983 0-18.105 8.122-18.105 18.106a4.5 4.5 0 01-4.5 4.5zM39.944 205.663a4.5 4.5 0 01-4.5-4.5c0-14.946 12.16-27.106 27.105-27.106a4.5 4.5 0 010 9c-9.983 0-18.105 8.122-18.105 18.106a4.5 4.5 0 01-4.5 4.5z"></path>
		<g fill="none">
			<path d="M392.36 417.37h1.84l47.26-184.94M70.54 232.43l47.26 184.94h1.84M90.71 216.9h.01c13.72 5.43 28.68 8.39 44.33 8.39 51.53 0 95.52-32.22 112.94-77.59M264.01 147.7c17.42 45.38 61.41 77.59 112.94 77.59 15.65 0 30.61-2.96 44.33-8.39h.01M247.99 147.68c-20.52-3.76-36.06-21.74-36.06-43.33 0-24.34 19.73-44.07 44.07-44.07s44.07 19.73 44.07 44.07c0 21.59-15.54 39.57-36.06 43.33-2.6.48-5.27.73-8.01.73s-5.41-.25-8.01-.73z"></path>
			<path d="M70.54 232.42c-2.55.65-5.23 1-7.99 1-17.82 0-32.26-14.44-32.26-32.26s14.44-32.26 32.26-32.26 32.26 14.44 32.26 32.26c0 5.72-1.49 11.09-4.09 15.74-4.26 7.61-11.52 13.32-20.18 15.52zM421.28 216.9a32.162 32.162 0 01-4.09-15.74c0-17.82 14.44-32.26 32.26-32.26s32.27 14.44 32.27 32.26-14.45 32.26-32.27 32.26c-2.76 0-5.44-.35-7.99-1-8.66-2.2-15.92-7.91-20.18-15.52zM392.36 417.37c8.24 0 14.91 6.67 14.91 14.9v4.54c0 8.23-6.67 14.91-14.91 14.91H119.64c-8.24 0-14.91-6.68-14.91-14.91v-4.54c0-8.23 6.67-14.9 14.91-14.9h272.72z"></path>
	    </g>
    </g>
    <linearGradient id="a" x1="256" x2="441.46" y1="282.525" y2="282.525" gradientUnits="userSpaceOnUse">
	    <stop offset="0"></stop>
	    <stop offset="1" stop-color="#FFF" stop-opacity="0"></stop>
    </linearGradient>
    <path fill="url(#a)" d="M441.46 232.42v.01L394.2 417.37H256V148.41c2.74 0 5.41-.25 8.01-.73v.02c17.42 45.38 61.41 77.59 112.94 77.59 15.65 0 30.61-2.96 44.33-8.39 4.26 7.61 11.52 13.32 20.18 15.52z" opacity=".1"></path>
  <g
     transform="translate(-78,-78) scale(0.82)">
    <path
       style="opacity:1;fill:#dd1a1e;fill-opacity:1;stroke:none;stroke-width:0.2;stroke-linecap:square;stroke-linejoin:round;stroke-miterlimit:3.9994173;stroke-dasharray:none;stroke-opacity:1"
       d="M 352.8827,357.0625 C 314.8623,357.0625 300.05446,382.83029 300.05446,404.94657 C 300.05446,473.68557 361.30309,555.43738 408.18327,599.0625 C 455.0631,555.43738 516.25824,473.68557 516.25824,404.94657 C 516.25824,382.83029 501.45023,357.0625 463.42998,357.0625 C 432.79932,357.0625 413.07369,377.65274 413.07369,398.82 C 413.07369,405.21367 415.04039,412.95412 408.18327,412.95412 C 401.32596,412.95412 403.23901,405.21367 403.23901,398.82 C 403.23901,377.65274 383.51321,357.0625 352.8827,357.0625 z"
       id="path2396" />
   </g>
</svg>