<svg xmlns="http://www.w3.org/2000/svg" width="512" height="512" viewBox="0 0 512 512" id="crown-spade">
	<g>
		<path fill="#C98B0E" d="M407.27 432.27v4.54c0 8.23-6.67 14.91-14.91 14.91H119.64c-8.24 0-14.91-6.68-14.91-14.91v-4.54c0-8.23 6.67-14.9 14.91-14.9h272.72c8.24 0 14.91 6.67 14.91 14.9z"></path>
		<path d="M407.27 432.27v4.54c0 1.71-.29 3.36-.83 4.89-2.02-5.82-7.56-10-14.08-10H119.64c-6.52 0-12.06 4.18-14.08 10-.54-1.53-.83-3.18-.83-4.89v-4.54c0-8.23 6.67-14.9 14.91-14.9h272.72c8.24 0 14.91 6.67 14.91 14.9z" opacity=".2"></path>
		<path fill="#2FC1F1" d="M90.72 216.9c-4.26 7.61-11.52 13.32-20.18 15.52-2.55.65-5.23 1-7.99 1-17.82 0-32.26-14.44-32.26-32.26s14.44-32.26 32.26-32.26 32.26 14.44 32.26 32.26c0 5.72-1.49 11.09-4.09 15.74z"></path>
		<path fill="#DD6475" d="M256 60.28c24.34 0 44.07 19.73 44.07 44.07 0 21.59-15.54 39.57-36.06 43.33-2.6.48-5.27.73-8.01.73s-5.41-.25-8.01-.73c-20.52-3.76-36.06-21.74-36.06-43.33 0-24.34 19.73-44.07 44.07-44.07z"></path>
		<path fill="#FFF" d="M226.071 108.849a4.5 4.5 0 0 1-4.5-4.5c0-18.984 15.445-34.429 34.429-34.429a4.5 4.5 0 0 1 0 9c-14.021 0-25.429 11.408-25.429 25.429a4.5 4.5 0 0 1-4.5 4.5z"></path>
		<path fill="#77D379" d="M421.28 216.9a32.162 32.162 0 0 1-4.09-15.74c0-17.82 14.44-32.26 32.26-32.26s32.27 14.44 32.27 32.26-14.45 32.26-32.27 32.26c-2.76 0-5.44-.35-7.99-1-8.66-2.2-15.92-7.91-20.18-15.52z"></path>
		<path fill="#FFC035" d="M441.46 232.42v.01L394.2 417.37H117.8L70.54 232.43v-.01c8.66-2.2 15.92-7.91 20.18-15.52 13.72 5.43 28.68 8.39 44.33 8.39 51.53 0 95.52-32.22 112.94-77.59v-.02c2.6.48 5.27.73 8.01.73s5.41-.25 8.01-.73v.02c17.42 45.38 61.41 77.59 112.94 77.59 15.65 0 30.61-2.96 44.33-8.39 4.26 7.61 11.52 13.32 20.18 15.52z"></path>
		<path fill="#FFF" d="M426.85 205.663a4.5 4.5 0 01-4.5-4.5c0-14.946 12.159-27.106 27.105-27.106a4.5 4.5 0 010 9c-9.983 0-18.105 8.122-18.105 18.106a4.5 4.5 0 01-4.5 4.5zM39.944 205.663a4.5 4.5 0 01-4.5-4.5c0-14.946 12.16-27.106 27.105-27.106a4.5 4.5 0 010 9c-9.983 0-18.105 8.122-18.105 18.106a4.5 4.5 0 01-4.5 4.5z"></path>
		<g fill="none">
			<path d="M392.36 417.37h1.84l47.26-184.94M70.54 232.43l47.26 184.94h1.84M90.71 216.9h.01c13.72 5.43 28.68 8.39 44.33 8.39 51.53 0 95.52-32.22 112.94-77.59M264.01 147.7c17.42 45.38 61.41 77.59 112.94 77.59 15.65 0 30.61-2.96 44.33-8.39h.01M247.99 147.68c-20.52-3.76-36.06-21.74-36.06-43.33 0-24.34 19.73-44.07 44.07-44.07s44.07 19.73 44.07 44.07c0 21.59-15.54 39.57-36.06 43.33-2.6.48-5.27.73-8.01.73s-5.41-.25-8.01-.73z"></path>
			<path d="M70.54 232.42c-2.55.65-5.23 1-7.99 1-17.82 0-32.26-14.44-32.26-32.26s14.44-32.26 32.26-32.26 32.26 14.44 32.26 32.26c0 5.72-1.49 11.09-4.09 15.74-4.26 7.61-11.52 13.32-20.18 15.52zM421.28 216.9a32.162 32.162 0 01-4.09-15.74c0-17.82 14.44-32.26 32.26-32.26s32.27 14.44 32.27 32.26-14.45 32.26-32.27 32.26c-2.76 0-5.44-.35-7.99-1-8.66-2.2-15.92-7.91-20.18-15.52zM392.36 417.37c8.24 0 14.91 6.67 14.91 14.9v4.54c0 8.23-6.67 14.91-14.91 14.91H119.64c-8.24 0-14.91-6.68-14.91-14.91v-4.54c0-8.23 6.67-14.9 14.91-14.9h272.72z"></path>
	    </g>
    </g>
    <linearGradient id="a" x1="256" x2="441.46" y1="282.525" y2="282.525" gradientUnits="userSpaceOnUse">
	    <stop offset="0"></stop>
	    <stop offset="1" stop-color="#FFF" stop-opacity="0"></stop>
    </linearGradient>
    <path fill="url(#a)" d="M441.46 232.42v.01L394.2 417.37H256V148.41c2.74 0 5.41-.25 8.01-.73v.02c17.42 45.38 61.41 77.59 112.94 77.59 15.65 0 30.61-2.96 44.33-8.39 4.26 7.61 11.52 13.32 20.18 15.52z" opacity=".1"></path>
  <g
     transform="translate(-113,-115) scale(0.88)">
    <path
       style="fill:#000000;fill-opacity:1;fill-rule:nonzero;stroke:none;stroke-width:1;stroke-linecap:round;stroke-linejoin:round;stroke-miterlimit:4;stroke-dasharray:3, 3;stroke-dashoffset:0;stroke-opacity:1"
       d="M 420.37498,349.55102 C 360.40052,390.08152 320.37505,467.57634 320.375,514.71623 C 320.375,539.21657 340.29885,560.81235 366.92151,560.81235 C 388.48053,560.81235 406.86151,541.23743 406.86146,514.26579 C 406.86146,510.20054 408.9958,508.40994 410.76536,508.40994 C 413.08604,508.40994 415.42002,511.71285 415.42002,518.01954 C 415.42002,533.65083 407.57185,573.31705 396.95155,597.44898 C 403.08128,595.63666 411.25603,593.8454 420.37498,593.8454 C 429.49402,593.8454 437.81882,595.63666 443.94856,597.44898 C 433.32825,573.31705 425.48008,533.65083 425.48008,518.01954 C 425.48008,511.71285 427.81406,508.40994 430.13474,508.40994 C 431.9043,508.40994 433.88849,510.20054 433.88849,514.26579 C 433.88854,541.23743 452.41957,560.81235 473.97859,560.81235 C 500.60125,560.81235 520.375,539.21657 520.375,514.71623 C 520.37505,467.57634 480.34948,390.08152 420.37498,349.55102 z"
       id="path2401" />
   </g>
</svg>