<svg xmlns="http://www.w3.org/2000/svg" width="24" height="24" id="left-arrow"><g data-name="left arrow"><path fill="none" d="M0 0h24v24H0Z" data-name="Path 3662"></path><path fill="#525863" d="M19.8 11.867a.9.9 0 0 1-.9.9H7.273l3.072 3.073.055.06a.9.9 0 0 1-1.27 1.27L4.463 12.5a1.136 1.136 0 0 1-.046-.049L4.38 12.4l-.028-.037-.024-.04-.022-.036-.019-.041-.018-.037-.014-.041-.014-.04-.01-.042-.012-.045-.006-.046-.01-.063v-.136l.009-.062.007-.047.012-.045.01-.042.015-.042.014-.039.019-.039.018-.039.023-.037.023-.039.028-.037.037-.051.046-.05L9.13 6.564a.9.9 0 1 1 1.27 1.272l-.058.058-3.072 3.073H18.9a.9.9 0 0 1 .9.9m1.8 0a2.7 2.7 0 0 0-2.7-2.7h-7.282l.058-.058a2.7 2.7 0 0 0-3.819-3.818L3.19 9.958a2.661 2.661 0 0 0-.179.2c-.025.031-.047.063-.071.1s-.059.077-.086.117-.048.078-.071.117l-.065.109c-.021.037-.04.082-.059.122s-.038.077-.054.117-.03.08-.044.121-.032.085-.045.129-.021.081-.031.121-.024.089-.033.135-.015.094-.021.141-.014.08-.017.12c-.009.089-.013.178-.013.266s0 .178.013.266c0 .04.011.08.017.12s.012.094.021.141.022.09.033.135.019.081.031.121.03.086.045.129.028.081.044.121.036.078.054.117.038.082.059.122.043.073.065.109.046.079.071.117.057.078.086.117.046.064.071.1a2.661 2.661 0 0 0 .179.2l4.667 4.667a2.7 2.7 0 0 0 3.818-3.818l-.058-.058H18.9a2.7 2.7 0 0 0 2.7-2.712Z" data-name="Path 3550"></path></g></svg>